<?xml version="1.0" encoding="us-ascii" standalone="no"?><svg xmlns="http://www.w3.org/2000/svg" xmlns:xlink="http://www.w3.org/1999/xlink" contentStyleType="text/css" height="801px" preserveAspectRatio="none" style="width:1143px;height:801px;background:#FFFFFF;" version="1.1" viewBox="0 0 1143 801" width="1143px" zoomAndPan="magnify"><defs/><g><!--cluster :api-service--><g id="cluster_:api-service"><rect fill="none" height="438" rx="2.5" ry="2.5" style="stroke:#181818;stroke-width:1.0;" width="493" x="7" y="125"/><rect fill="none" height="10" style="stroke:#181818;stroke-width:1.0;" width="15" x="480" y="130"/><rect fill="none" height="2" style="stroke:#181818;stroke-width:1.0;" width="4" x="478" y="132"/><rect fill="none" height="2" style="stroke:#181818;stroke-width:1.0;" width="4" x="478" y="136"/><text fill="#000000" font-family="sans-serif" font-size="14" font-weight="bold" lengthAdjust="spacing" textLength="94" x="206.5" y="150.9951">:api-service</text></g><!--cluster BLC--><g id="cluster_BLC"><rect fill="none" height="391" rx="2.5" ry="2.5" style="stroke:#181818;stroke-width:1.0;" width="481" x="656" y="404"/><rect fill="none" height="10" style="stroke:#181818;stroke-width:1.0;" width="15" x="1117" y="409"/><rect fill="none" height="2" style="stroke:#181818;stroke-width:1.0;" width="4" x="1115" y="411"/><rect fill="none" height="2" style="stroke:#181818;stroke-width:1.0;" width="4" x="1115" y="415"/><text fill="#000000" font-family="sans-serif" font-size="14" font-weight="bold" lengthAdjust="spacing" textLength="165" x="814" y="429.9951">:blockchain-network</text></g><text fill="#000000" font-family="sans-serif" font-size="14" lengthAdjust="spacing" textLength="4" x="262" y="103.6982">&#160;</text><rect fill="#F1F1F1" height="12" style="stroke:#181818;stroke-width:1.5;" width="12" x="258" y="119"/><text fill="#000000" font-family="sans-serif" font-size="14" lengthAdjust="spacing" textLength="4" x="191" y="103.6982">&#160;</text><rect fill="#F1F1F1" height="12" style="stroke:#181818;stroke-width:1.5;" width="12" x="187" y="119"/><!--entity MONGO_CONNECTION--><g id="elem_MONGO_CONNECTION"><ellipse cx="71" cy="404" fill="#F1F1F1" rx="8" ry="8" style="stroke:#181818;stroke-width:0.5;"/><text fill="#000000" font-family="sans-serif" font-size="14" lengthAdjust="spacing" textLength="81" x="30.5" y="433.9951">connection</text></g><!--entity REDIS_CONNECTION--><g id="elem_REDIS_CONNECTION"><ellipse cx="411" cy="404" fill="#F1F1F1" rx="8" ry="8" style="stroke:#181818;stroke-width:0.5;"/><text fill="#000000" font-family="sans-serif" font-size="14" lengthAdjust="spacing" textLength="81" x="370.5" y="433.9951">connection</text></g><!--entity CC--><g id="elem_CC"><rect fill="#F1F1F1" height="46.2969" rx="2.5" ry="2.5" style="stroke:#181818;stroke-width:0.5;" width="174" x="154" y="381"/><rect fill="#F1F1F1" height="10" style="stroke:#181818;stroke-width:0.5;" width="15" x="308" y="386"/><rect fill="#F1F1F1" height="2" style="stroke:#181818;stroke-width:0.5;" width="4" x="306" y="388"/><rect fill="#F1F1F1" height="2" style="stroke:#181818;stroke-width:0.5;" width="4" x="306" y="392"/><text fill="#000000" font-family="sans-serif" font-size="14" lengthAdjust="spacing" textLength="134" x="169" y="413.9951">:core-components</text></g><!--entity ATS--><g id="elem_ATS"><rect fill="#CCFFCC" height="62.5938" rx="2.5" ry="2.5" style="stroke:#181818;stroke-width:0.5;" width="137" x="23.5" y="252"/><rect fill="#CCFFCC" height="10" style="stroke:#181818;stroke-width:0.5;" width="15" x="140.5" y="257"/><rect fill="#CCFFCC" height="2" style="stroke:#181818;stroke-width:0.5;" width="4" x="138.5" y="259"/><rect fill="#CCFFCC" height="2" style="stroke:#181818;stroke-width:0.5;" width="4" x="138.5" y="263"/><text fill="#000000" font-family="sans-serif" font-size="14" font-style="italic" lengthAdjust="spacing" textLength="97" x="38.5" y="284.9951">&#171;executable&#187;</text><text fill="#000000" font-family="sans-serif" font-size="14" lengthAdjust="spacing" textLength="88" x="43" y="301.292">:auth-server</text></g><!--entity APS--><g id="elem_APS"><rect fill="#CCFFCC" height="62.5938" rx="2.5" ry="2.5" style="stroke:#181818;stroke-width:0.5;" width="137" x="195.5" y="252"/><rect fill="#CCFFCC" height="10" style="stroke:#181818;stroke-width:0.5;" width="15" x="312.5" y="257"/><rect fill="#CCFFCC" height="2" style="stroke:#181818;stroke-width:0.5;" width="4" x="310.5" y="259"/><rect fill="#CCFFCC" height="2" style="stroke:#181818;stroke-width:0.5;" width="4" x="310.5" y="263"/><text fill="#000000" font-family="sans-serif" font-size="14" font-style="italic" lengthAdjust="spacing" textLength="97" x="210.5" y="284.9951">&#171;executable&#187;</text><text fill="#000000" font-family="sans-serif" font-size="14" lengthAdjust="spacing" textLength="78" x="220" y="301.292">:api-server</text></g><!--entity MongoDB--><g id="elem_MongoDB"><path d="M26.5,512 C26.5,502 71,502 71,502 C71,502 115.5,502 115.5,512 L115.5,537.2969 C115.5,547.2969 71,547.2969 71,547.2969 C71,547.2969 26.5,547.2969 26.5,537.2969 L26.5,512 " fill="#FFFFE0" style="stroke:#181818;stroke-width:0.5;"/><path d="M26.5,512 C26.5,522 71,522 71,522 C71,522 115.5,522 115.5,512 " fill="none" style="stroke:#181818;stroke-width:0.5;"/><text fill="#000000" font-family="sans-serif" font-size="14" lengthAdjust="spacing" textLength="69" x="36.5" y="538.9951">MongoDB</text></g><!--entity Redis--><g id="elem_Redis"><path d="M381.5,512 C381.5,502 411,502 411,502 C411,502 440.5,502 440.5,512 L440.5,537.2969 C440.5,547.2969 411,547.2969 411,547.2969 C411,547.2969 381.5,547.2969 381.5,537.2969 L381.5,512 " fill="#FFFFE0" style="stroke:#181818;stroke-width:0.5;"/><path d="M381.5,512 C381.5,522 411,522 411,522 C411,522 440.5,522 440.5,512 " fill="none" style="stroke:#181818;stroke-width:0.5;"/><text fill="#000000" font-family="sans-serif" font-size="14" lengthAdjust="spacing" textLength="39" x="391.5" y="538.9951">Redis</text></g><text fill="#000000" font-family="sans-serif" font-size="14" lengthAdjust="spacing" textLength="4" x="498" y="422.9951">&#160;</text><rect fill="#F1F1F1" height="12" style="stroke:#181818;stroke-width:1.5;" width="12" x="494" y="398"/><text fill="#000000" font-family="sans-serif" font-size="14" lengthAdjust="spacing" textLength="4" x="672" y="382.6982">&#160;</text><rect fill="#F1F1F1" height="12" style="stroke:#181818;stroke-width:1.5;" width="12" x="668" y="398"/><!--entity BLC_CONNECTION--><g id="elem_BLC_CONNECTION"><ellipse cx="881" cy="645" fill="#F1F1F1" rx="8" ry="8" style="stroke:#181818;stroke-width:0.5;"/><text fill="#000000" font-family="sans-serif" font-size="14" lengthAdjust="spacing" textLength="163" x="799.5" y="674.9951">blockchain connection</text></g><!--entity SC--><g id="elem_SC"><rect fill="#CCFFCC" height="62.5938" rx="2.5" ry="2.5" style="stroke:#181818;stroke-width:0.5;" width="162" x="800" y="493"/><rect fill="#CCFFCC" height="10" style="stroke:#181818;stroke-width:0.5;" width="15" x="942" y="498"/><rect fill="#CCFFCC" height="2" style="stroke:#181818;stroke-width:0.5;" width="4" x="940" y="500"/><rect fill="#CCFFCC" height="2" style="stroke:#181818;stroke-width:0.5;" width="4" x="940" y="504"/><text fill="#000000" font-family="sans-serif" font-size="14" font-style="italic" lengthAdjust="spacing" textLength="97" x="827.5" y="525.9951">&#171;executable&#187;</text><text fill="#000000" font-family="sans-serif" font-size="14" lengthAdjust="spacing" textLength="122" x="815" y="542.292">:smart-contracts</text></g><!--entity CHAIN--><g id="elem_CHAIN"><rect fill="#F1F1F1" height="46.2969" rx="2.5" ry="2.5" style="stroke:#181818;stroke-width:0.5;" width="123" x="997.5" y="501.5"/><rect fill="#F1F1F1" height="10" style="stroke:#181818;stroke-width:0.5;" width="15" x="1100.5" y="506.5"/><rect fill="#F1F1F1" height="2" style="stroke:#181818;stroke-width:0.5;" width="4" x="1098.5" y="508.5"/><rect fill="#F1F1F1" height="2" style="stroke:#181818;stroke-width:0.5;" width="4" x="1098.5" y="512.5"/><text fill="#000000" font-family="sans-serif" font-size="14" lengthAdjust="spacing" textLength="83" x="1012.5" y="534.4951">:blockchain</text></g><!--entity PVD--><g id="elem_PVD"><path d="M763.5,744 C763.5,734 818,734 818,734 C818,734 872.5,734 872.5,744 L872.5,769.2969 C872.5,779.2969 818,779.2969 818,779.2969 C818,779.2969 763.5,779.2969 763.5,769.2969 L763.5,744 " fill="#FFFFE0" style="stroke:#181818;stroke-width:0.5;"/><path d="M763.5,744 C763.5,754 818,754 818,754 C818,754 872.5,754 872.5,744 " fill="none" style="stroke:#181818;stroke-width:0.5;"/><text fill="#000000" font-family="sans-serif" font-size="14" lengthAdjust="spacing" textLength="89" x="773.5" y="770.9951">Private Data</text></g><!--entity LD--><g id="elem_LD"><path d="M908,744 C908,734 943,734 943,734 C943,734 978,734 978,744 L978,769.2969 C978,779.2969 943,779.2969 943,779.2969 C943,779.2969 908,779.2969 908,769.2969 L908,744 " fill="#FFFFE0" style="stroke:#181818;stroke-width:0.5;"/><path d="M908,744 C908,754 943,754 943,754 C943,754 978,754 978,744 " fill="none" style="stroke:#181818;stroke-width:0.5;"/><text fill="#000000" font-family="sans-serif" font-size="14" lengthAdjust="spacing" textLength="50" x="918" y="770.9951">Ledger</text></g><!--entity AUTH_API--><g id="elem_AUTH_API"><ellipse cx="146" cy="14" fill="#F1F1F1" rx="8" ry="8" style="stroke:#181818;stroke-width:0.5;"/><text fill="#000000" font-family="sans-serif" font-size="14" lengthAdjust="spacing" textLength="108" x="90" y="43.9951">Authentication</text><text fill="#000000" font-family="sans-serif" font-size="14" lengthAdjust="spacing" textLength="64" x="90" y="60.292">ReST API</text></g><!--entity ELECTIONS_API--><g id="elem_ELECTIONS_API"><ellipse cx="288" cy="14" fill="#F1F1F1" rx="8" ry="8" style="stroke:#181818;stroke-width:0.5;"/><text fill="#000000" font-family="sans-serif" font-size="14" lengthAdjust="spacing" textLength="66" x="253" y="43.9951">Elections</text><text fill="#000000" font-family="sans-serif" font-size="14" lengthAdjust="spacing" textLength="64" x="253" y="60.292">ReST API</text></g><!--entity API_BLOCKCHAIN_INTERFACE--><g id="elem_API_BLOCKCHAIN_INTERFACE"><ellipse cx="550" cy="404" fill="#F1F1F1" rx="8" ry="8" style="stroke:#181818;stroke-width:0.5;"/><text fill="#000000" font-family="sans-serif" font-size="14" lengthAdjust="spacing" textLength="89" x="503.5" y="433.9951">Hyperledger</text><text fill="#000000" font-family="sans-serif" font-size="14" lengthAdjust="spacing" textLength="89" x="503.5" y="450.292">API Gateway</text></g><!--link ELECTIONS_API to API_PIN--><g id="link_ELECTIONS_API_API_PIN"><path d="M286.196,23.193 C281.487,44.581 268.923,101.643 265.111,118.952 " fill="none" id="ELECTIONS_API-API_PIN" style="stroke:#181818;stroke-width:1.0;"/></g><!--link AUTH_API to AUTH_PIN--><g id="link_AUTH_API_AUTH_PIN"><path d="M149.533,23.193 C158.755,44.581 183.36,101.643 190.823,118.952 " fill="none" id="AUTH_API-AUTH_PIN" style="stroke:#181818;stroke-width:1.0;"/></g><!--link AUTH_PIN to ATS--><g id="link_AUTH_PIN_ATS"><path d="M189.64,131.207 C177.694,149.717 139.9205,208.2477 115.0085,246.8487 " fill="none" id="AUTH_PIN-to-ATS" style="stroke:#181818;stroke-width:1.0;"/><polygon fill="#181818" points="111.755,251.89,119.9961,246.4971,114.4663,247.6889,113.2744,242.159,111.755,251.89" style="stroke:#181818;stroke-width:1.0;"/></g><!--link API_PIN to APS--><g id="link_API_PIN_APS"><path d="M264,131.207 C264,149.717 264,207.289 264,245.89 " fill="none" id="API_PIN-to-APS" style="stroke:#181818;stroke-width:1.0;"/><polygon fill="#181818" points="264,251.89,268,242.89,264,246.89,260,242.89,264,251.89" style="stroke:#181818;stroke-width:1.0;"/></g><!--link APS to MONGO_CONNECTION--><g id="link_APS_MONGO_CONNECTION"><path d="M209.1848,318.1564 C163.3918,346.2724 109.2762,379.4997 85.4566,394.1237 " fill="none" id="APS-MONGO_CONNECTION" style="stroke:#181818;stroke-width:1.0;stroke-dasharray:7.0,7.0;"/><polygon fill="#181818" points="214.298,315.017,204.5354,316.3173,210.037,317.6331,208.7212,323.1348,214.298,315.017" style="stroke:#181818;stroke-width:1.0;"/><polygon fill="#181818" points="80.3434,397.263,90.1061,395.9629,84.6044,394.647,85.9204,389.1453,80.3434,397.263" style="stroke:#181818;stroke-width:1.0;"/></g><!--link APS to REDIS_CONNECTION--><g id="link_APS_REDIS_CONNECTION"><path d="M306.5272,318.7826 C340.2142,345.9386 377.7398,376.1884 397.2478,391.9144 " fill="none" id="APS-REDIS_CONNECTION" style="stroke:#181818;stroke-width:1.0;stroke-dasharray:7.0,7.0;"/><polygon fill="#181818" points="301.856,315.017,306.3524,323.7795,305.7487,318.155,311.3732,317.5512,301.856,315.017" style="stroke:#181818;stroke-width:1.0;"/><polygon fill="#181818" points="401.919,395.68,397.4226,386.9174,398.0263,392.542,392.4018,393.1457,401.919,395.68" style="stroke:#181818;stroke-width:1.0;"/></g><!--link ATS to REDIS_CONNECTION--><g id="link_ATS_REDIS_CONNECTION"><path d="M166.4559,311.015 C238.2449,336.597 335.997,371.484 345,375 C365.405,382.97 383.4605,390.7897 396.1825,396.4147 " fill="none" id="ATS-REDIS_CONNECTION" style="stroke:#181818;stroke-width:1.0;stroke-dasharray:7.0,7.0;"/><polygon fill="#181818" points="160.804,309.001,167.9391,315.79,165.5139,310.6794,170.6245,308.2542,160.804,309.001" style="stroke:#181818;stroke-width:1.0;"/><polygon fill="#181818" points="401.67,398.841,395.0562,391.5432,397.0971,396.8191,391.8212,398.8599,401.67,398.841" style="stroke:#181818;stroke-width:1.0;"/></g><!--link ATS to CC--><g id="link_ATS_CC"><path d="M130.371,315.017 C156.239,335.589 189.774,362.26 213.111,380.82 " fill="none" id="ATS-CC" style="stroke:#181818;stroke-width:1.0;"/></g><!--link APS to CC--><g id="link_APS_CC"><path d="M258.077,315.017 C254.084,335.589 248.907,362.26 245.305,380.82 " fill="none" id="APS-CC" style="stroke:#181818;stroke-width:1.0;"/></g><!--link ATS to MONGO_CONNECTION--><g id="link_ATS_MONGO_CONNECTION"><path d="M85.545,320.9249 C80.8298,347.5319 76.4009,372.5241 73.5179,388.7921 " fill="none" id="ATS-MONGO_CONNECTION" style="stroke:#181818;stroke-width:1.0;stroke-dasharray:7.0,7.0;"/><polygon fill="#181818" points="86.592,315.017,81.0829,323.1809,85.7195,319.9403,88.9602,324.5769,86.592,315.017" style="stroke:#181818;stroke-width:1.0;"/><polygon fill="#181818" points="72.4709,394.7,77.98,386.5361,73.3434,389.7767,70.1028,385.1401,72.4709,394.7" style="stroke:#181818;stroke-width:1.0;"/></g><!--link REDIS_CONNECTION to Redis--><g id="link_REDIS_CONNECTION_Redis"><path d="M411,419.145 C411,437.237 411,469.274 411,495.927 " fill="none" id="REDIS_CONNECTION-Redis" style="stroke:#181818;stroke-width:1.0;stroke-dasharray:7.0,7.0;"/><polygon fill="#181818" points="411,413.145,407,422.145,411,418.145,415,422.145,411,413.145" style="stroke:#181818;stroke-width:1.0;"/><polygon fill="#181818" points="411,501.927,415,492.927,411,496.927,407,492.927,411,501.927" style="stroke:#181818;stroke-width:1.0;"/></g><!--link MONGO_CONNECTION to MongoDB--><g id="link_MONGO_CONNECTION_MongoDB"><path d="M71,419.145 C71,437.237 71,469.274 71,495.927 " fill="none" id="MONGO_CONNECTION-MongoDB" style="stroke:#181818;stroke-width:1.0;stroke-dasharray:7.0,7.0;"/><polygon fill="#181818" points="71,413.145,67,422.145,71,418.145,75,422.145,71,413.145" style="stroke:#181818;stroke-width:1.0;"/><polygon fill="#181818" points="71,501.927,75,492.927,71,496.927,67,492.927,71,501.927" style="stroke:#181818;stroke-width:1.0;"/></g><!--link APS to API_OUT--><g id="link_APS_API_OUT"><path d="M332.615,308.739 C394.783,331.219 478.402,362.955 490,375 C496.015,381.247 497.5272,385.4231 498.4852,391.6331 " fill="none" id="APS-to-API_OUT" style="stroke:#181818;stroke-width:1.0;"/><polygon fill="#181818" points="499.4,397.563,501.9811,388.0584,498.6377,392.6215,494.0746,389.2781,499.4,397.563" style="stroke:#181818;stroke-width:1.0;"/></g><!--link API_OUT to API_BLOCKCHAIN_INTERFACE--><g id="link_API_OUT_API_BLOCKCHAIN_INTERFACE"><path d="M506.25,404 C517.757,404 523.264,404 534.771,404 " fill="none" id="API_OUT-to-API_BLOCKCHAIN_INTERFACE" style="stroke:#181818;stroke-width:1.0;"/><polygon fill="#181818" points="540.771,404,531.771,400,535.771,404,531.771,408,540.771,404" style="stroke:#181818;stroke-width:1.0;"/></g><!--link API_BLOCKCHAIN_INTERFACE to BLC_PIN--><g id="link_API_BLOCKCHAIN_INTERFACE_BLC_PIN"><path d="M559.203,404 C595.376,404 625.549,404 661.722,404 " fill="none" id="API_BLOCKCHAIN_INTERFACE-to-BLC_PIN" style="stroke:#181818;stroke-width:1.0;"/><polygon fill="#181818" points="667.722,404,658.722,400,662.722,404,658.722,408,667.722,404" style="stroke:#181818;stroke-width:1.0;"/></g><!--link BLC_PIN to SC--><g id="link_BLC_PIN_SC"><path d="M680.422,408.676 C702.396,421.255 770.8569,460.4471 822.5059,490.0141 " fill="none" id="BLC_PIN-to-SC" style="stroke:#181818;stroke-width:1.0;"/><polygon fill="#181818" points="827.713,492.995,821.8895,485.0522,823.3737,490.5109,817.915,491.9951,827.713,492.995" style="stroke:#181818;stroke-width:1.0;"/></g><!--link SC to CHAIN--><g id="link_SC_CHAIN"><path d="M962.004,524.5 C973.75,524.5 985.495,524.5 997.241,524.5 " fill="none" id="SC-CHAIN" style="stroke:#181818;stroke-width:1.0;"/></g><!--link SC to BLC_CONNECTION--><g id="link_SC_BLC_CONNECTION"><path d="M881,562.017 C881,588.624 881,613.432 881,629.7 " fill="none" id="SC-BLC_CONNECTION" style="stroke:#181818;stroke-width:1.0;stroke-dasharray:7.0,7.0;"/><polygon fill="#181818" points="881,556.017,877,565.017,881,561.017,885,565.017,881,556.017" style="stroke:#181818;stroke-width:1.0;"/><polygon fill="#181818" points="881,635.7,885,626.7,881,630.7,877,626.7,881,635.7" style="stroke:#181818;stroke-width:1.0;"/></g><!--link BLC_CONNECTION to LD--><g id="link_BLC_CONNECTION_LD"><path d="M888.6162,659.4512 C898.0782,676.1632 913.9038,704.1116 927.7298,728.5306 " fill="none" id="BLC_CONNECTION-LD" style="stroke:#181818;stroke-width:1.0;stroke-dasharray:7.0,7.0;"/><polygon fill="#181818" points="885.66,654.23,886.6134,664.0326,888.1235,658.581,893.575,660.0911,885.66,654.23" style="stroke:#181818;stroke-width:1.0;"/><polygon fill="#181818" points="930.686,733.7518,929.7325,723.9492,928.2225,729.4008,922.7709,727.8908,930.686,733.7518" style="stroke:#181818;stroke-width:1.0;"/></g><!--link BLC_CONNECTION to PVD--><g id="link_BLC_CONNECTION_PVD"><path d="M873.2729,659.4307 C863.6579,676.1427 847.5541,704.1321 833.5051,728.5511 " fill="none" id="BLC_CONNECTION-PVD" style="stroke:#181818;stroke-width:1.0;stroke-dasharray:7.0,7.0;"/><polygon fill="#181818" points="876.265,654.23,868.3097,660.0363,873.7716,658.5639,875.2439,664.0258,876.265,654.23" style="stroke:#181818;stroke-width:1.0;"/><polygon fill="#181818" points="830.513,733.7518,838.4683,727.9455,833.0064,729.4179,831.534,723.956,830.513,733.7518" style="stroke:#181818;stroke-width:1.0;"/></g><!--SRC=[XLHTRzem57tthx2oXsqFwG-OAYGmQOaMaeYahIPDGgvnmIBOo3PbQDf_d-sOG3veyq9oxxdskUUUYzeoliSIxo0HkxtWb6lu5q3pJ33PhgKuy1KIbP3tzvAkcTBo52egtwaSZU3BXcaw3AP_A3be_5fHW_j2oDiR8SD8JPKs67B27Fm3gk4pnQOSAzefW0bRR_GlMbNY2C2txp0O7_J6q6O4QoOu_CqNj2ZXE8y3Y1KSFvMpfVbmqAYYn89K5nKb4IhZB2qS57pjF1ON5j7YEKOHHDaypz8eBM4N1YuQ1Z_mdZcb6A61btGlf6OS1h1cbiVBF4w7CfQpJRcS9Ku4vpLr1vXdwMEsH5cQrhHluHRHD2wkSGvupP88ISCce5mLGZqODXhxkTSComAsXzmlyVsVA_9UXIjP-J73kU1hCPsqWmkwOWeq4ec3lbOlUogDPK1hU30C6sNFitUniwRd5nCCHxOHuE4-aDk0uNftD-hht6HwoZf5RcOC0QEghVPlvQqRkkN-KAT35-oFyCBLfuyQPVekdYGP-ebcOzFh1oQsFfgTzbHMTBMcqgoAbV0HQth4fqRxordBE2sZnSCOHS1V3KDfbzHp6KIsLkMr4cHBDfZna5Dz57BhhfaaQ71nJBoz7PTws5a02_t8_cg7fJR-vrfYukrVeC-iVRcltXVRMyVDGIxPkv7C_OqvLFuyxK0IfwzB9bDhv5jgNVGyj-v_tRmB183Xx36UZMt2cgCZGFkpXfYxXyA6xty0]--></g></svg>