<?xml version="1.0" encoding="us-ascii" standalone="no"?><svg xmlns="http://www.w3.org/2000/svg" xmlns:xlink="http://www.w3.org/1999/xlink" contentStyleType="text/css" height="774px" preserveAspectRatio="none" style="width:920px;height:774px;background:#FFFFFF;" version="1.1" viewBox="0 0 920 774" width="920px" zoomAndPan="magnify"><defs/><g><!--cluster ChainVote--><g id="cluster_ChainVote"><rect fill="none" height="761" rx="2.5" ry="2.5" style="stroke:#181818;stroke-width:1.0;" width="682" x="84" y="7"/><text fill="#000000" font-family="sans-serif" font-size="14" font-weight="bold" lengthAdjust="spacing" textLength="83" x="383.5" y="21.9951">ChainVote</text></g><g id="elem_UC0"><ellipse cx="216.3822" cy="653.0764" fill="#F1F1F1" rx="100.8822" ry="22.5764" style="stroke:#181818;stroke-width:0.5;"/><text fill="#000000" font-family="sans-serif" font-size="14" lengthAdjust="spacing" textLength="166" x="133.3822" y="655.9231">Register to the system</text></g><g id="elem_UC1"><ellipse cx="216.4431" cy="731.1886" fill="#F1F1F1" rx="91.4431" ry="20.6886" style="stroke:#181818;stroke-width:0.5;"/><text fill="#000000" font-family="sans-serif" font-size="14" lengthAdjust="spacing" textLength="145" x="143.9431" y="734.0353">Create new election</text></g><g id="elem_UC2"><ellipse cx="216.4079" cy="66.7816" fill="#F1F1F1" rx="111.9079" ry="24.7816" style="stroke:#181818;stroke-width:0.5;"/><text fill="#000000" font-family="sans-serif" font-size="14" lengthAdjust="spacing" textLength="190" x="121.4079" y="69.6283">Cast a vote for an election</text></g><g id="elem_UC3"><ellipse cx="216.4652" cy="577.193" fill="#F1F1F1" rx="78.9652" ry="18.193" style="stroke:#181818;stroke-width:0.5;"/><text fill="#000000" font-family="sans-serif" font-size="14" lengthAdjust="spacing" textLength="116" x="156.4" y="580.6886">List all elections</text></g><g id="elem_UC4"><ellipse cx="216.709" cy="151.0418" fill="#F1F1F1" rx="108.209" ry="24.0418" style="stroke:#181818;stroke-width:0.5;"/><text fill="#000000" font-family="sans-serif" font-size="14" lengthAdjust="spacing" textLength="182" x="125.709" y="153.8885">See results of an election</text></g><g id="elem_UC5"><ellipse cx="216.4811" cy="499.0962" fill="#F1F1F1" rx="110.9811" ry="24.5962" style="stroke:#181818;stroke-width:0.5;"/><text fill="#000000" font-family="sans-serif" font-size="14" lengthAdjust="spacing" textLength="188" x="122.4811" y="501.9429">See turnout of an election</text></g><g id="elem_UC6"><ellipse cx="216.5673" cy="417.2135" fill="#F1F1F1" rx="99.0673" ry="22.2135" style="stroke:#181818;stroke-width:0.5;"/><text fill="#000000" font-family="sans-serif" font-size="14" lengthAdjust="spacing" textLength="162" x="135.5673" y="420.0601">See info of an election</text></g><g id="elem_CK1"><ellipse cx="216.5751" cy="250.215" fill="#F1F1F1" rx="104.0751" ry="23.215" style="stroke:#181818;stroke-width:0.5;"/><text fill="#000000" font-family="sans-serif" font-size="14" lengthAdjust="spacing" textLength="173" x="130.0751" y="253.0617">Check election is closed</text></g><g id="elem_CK2"><ellipse cx="602.9738" cy="163.8948" fill="#F1F1F1" rx="99.9738" ry="22.3948" style="stroke:#181818;stroke-width:0.5;"/><text fill="#000000" font-family="sans-serif" font-size="14" lengthAdjust="spacing" textLength="164" x="520.9738" y="166.7414">Check election is open</text></g><g id="elem_CK3"><ellipse cx="602.9942" cy="73.7988" fill="#F1F1F1" rx="146.9942" ry="31.7988" style="stroke:#181818;stroke-width:0.5;"/><text fill="#000000" font-family="sans-serif" font-size="14" lengthAdjust="spacing" textLength="221" x="487.4942" y="69.398">Check the user has not already</text><text fill="#000000" font-family="sans-serif" font-size="14" lengthAdjust="spacing" textLength="165" x="519.4942" y="85.6948">voted for that election</text></g><g id="elem_UC7"><ellipse cx="216.5602" cy="334.212" fill="#F1F1F1" rx="116.5602" ry="25.712" style="stroke:#181818;stroke-width:0.5;"/><text fill="#000000" font-family="sans-serif" font-size="14" lengthAdjust="spacing" textLength="200" x="116.5602" y="337.0587">Authenticate to the system</text></g><!--entity User--><g id="elem_User"><ellipse cx="21.5" cy="387.5" fill="#F1F1F1" rx="8" ry="8" style="stroke:#181818;stroke-width:0.5;"/><path d="M21.5,395.5 L21.5,422.5 M8.5,403.5 L34.5,403.5 M21.5,422.5 L8.5,437.5 M21.5,422.5 L34.5,437.5 " fill="none" style="stroke:#181818;stroke-width:0.5;"/><text fill="#000000" font-family="sans-serif" font-size="14" lengthAdjust="spacing" textLength="31" x="6" y="451.9951">User</text></g><!--entity Administrator--><g id="elem_Administrator"><ellipse cx="863" cy="429.5" fill="#F1F1F1" rx="8" ry="8" style="stroke:#181818;stroke-width:0.5;"/><path d="M863,437.5 L863,464.5 M850,445.5 L876,445.5 M863,464.5 L850,479.5 M863,464.5 L876,479.5 " fill="none" style="stroke:#181818;stroke-width:0.5;"/><text fill="#000000" font-family="sans-serif" font-size="14" lengthAdjust="spacing" textLength="100" x="813" y="493.9951">Administrator</text></g><!--link UC2 to CK2--><g id="link_UC2_CK2"><path d="M291.635,85.703 C362.34,103.54 462.0273,128.6883 529.9753,145.8303 " fill="none" id="UC2-to-CK2" style="stroke:#181818;stroke-width:1.0;stroke-dasharray:7.0,7.0;"/><polygon fill="#181818" points="535.793,147.298,528.0449,141.218,530.9449,146.0749,526.088,148.9749,535.793,147.298" style="stroke:#181818;stroke-width:1.0;"/><text fill="#000000" font-family="sans-serif" font-size="13" lengthAdjust="spacing" textLength="61" x="364" y="100.0669">&#171;include&#187;</text></g><!--link UC2 to CK3--><g id="link_UC2_CK3"><path d="M328.197,69.015 C368.131,69.742 407.828,70.4648 450.3,71.2378 " fill="none" id="UC2-to-CK3" style="stroke:#181818;stroke-width:1.0;stroke-dasharray:7.0,7.0;"/><polygon fill="#181818" points="456.299,71.347,447.3733,67.1839,451.2998,71.256,447.2277,75.1826,456.299,71.347" style="stroke:#181818;stroke-width:1.0;"/><text fill="#000000" font-family="sans-serif" font-size="13" lengthAdjust="spacing" textLength="61" x="364" y="66.0669">&#171;include&#187;</text></g><!--reverse link CK1 to UC4--><g id="link_CK1_UC4"><path d="M216.5,220.789 C216.5,205.244 216.5,190.826 216.5,175.099 " fill="none" id="CK1-backto-UC4" style="stroke:#181818;stroke-width:1.0;stroke-dasharray:7.0,7.0;"/><polygon fill="#181818" points="216.5,226.789,220.5,217.789,216.5,221.789,212.5,217.789,216.5,226.789" style="stroke:#181818;stroke-width:1.0;"/><text fill="#000000" font-family="sans-serif" font-size="13" lengthAdjust="spacing" textLength="61" x="174.5" y="205.5669">&#171;include&#187;</text></g><!--link User to UC0--><g id="link_User_UC0"><path d="M22.343,455.217 C24.2772,499.175 34.2429,570.706 76,613 C89.8954,627.074 108.386,636.278 127.347,642.275 " fill="none" id="User-UC0" style="stroke:#181818;stroke-width:1.0;"/></g><!--link User to UC2--><g id="link_User_UC2"><path d="M24.2341,378.77 C28.3302,305.366 41.0377,148.449 76,109 C87.9107,95.561 103.945,86.345 120.899,80.045 " fill="none" id="User-UC2" style="stroke:#181818;stroke-width:1.0;"/></g><!--link User to UC3--><g id="link_User_UC3"><path d="M29.6073,455.117 C36.726,482.807 50.4414,519.12 76,541 C94.4306,556.778 118.922,565.768 142.236,570.848 " fill="none" id="User-UC3" style="stroke:#181818;stroke-width:1.0;"/></g><!--link User to UC4--><g id="link_User_UC4"><path d="M22.4811,378.968 C24.4515,333.35 34.3556,257.035 76,209 C92.6659,189.777 116.73,176.794 140.194,168.083 " fill="none" id="User-UC4" style="stroke:#181818;stroke-width:1.0;"/></g><!--link User to UC5--><g id="link_User_UC5"><path d="M37.014,430.066 C47.2809,438.731 61.7111,449.792 76,457 C95.7591,466.968 118.308,475.029 139.431,481.321 " fill="none" id="User-UC5" style="stroke:#181818;stroke-width:1.0;"/></g><!--link User to UC6--><g id="link_User_UC6"><path d="M37.0064,417 C54.627,417 85.9217,417 117.439,417 " fill="none" id="User-UC6" style="stroke:#181818;stroke-width:1.0;"/></g><!--link User to UC7--><g id="link_User_UC7"><path d="M37.0291,403.963 C47.3028,395.312 61.7348,384.255 76,377 C95.201,367.234 117.03,359.213 137.626,352.855 " fill="none" id="User-UC7" style="stroke:#181818;stroke-width:1.0;"/></g><!--link UC1 to Administrator--><g id="link_UC1_Administrator"><path d="M295.588,720.5998 C408.738,702.6353 621.405,657.769 774,559 C798.656,543.041 820.506,518.305 836.266,497.429 " fill="none" id="UC1-Administrator" style="stroke:#181818;stroke-width:1.0;"/></g><!--link UC3 to Administrator--><g id="link_UC3_Administrator"><path d="M290.958,570.671 C398.375,560.321 604.01,536.343 774,492 C786.789,488.664 800.294,484.135 812.783,479.503 " fill="none" id="UC3-Administrator" style="stroke:#181818;stroke-width:1.0;"/></g><!--link UC4 to Administrator--><g id="link_UC4_Administrator"><path d="M284.878,169.756 C414.515,206.659 693.004,290.134 774,348 C801.014,367.299 824.008,397.112 839.711,420.983 " fill="none" id="UC4-Administrator" style="stroke:#181818;stroke-width:1.0;"/></g><!--link UC5 to Administrator--><g id="link_UC5_Administrator"><path d="M323.565,492.417 C464.708,483.657 708.542,468.524 812.611,462.065 " fill="none" id="UC5-Administrator" style="stroke:#181818;stroke-width:1.0;"/></g><!--link UC6 to Administrator--><g id="link_UC6_Administrator"><path d="M315.664,417.53 C428.723,419.102 619.871,424.715 783,444 C792.705,445.147 803.009,446.789 812.859,448.568 " fill="none" id="UC6-Administrator" style="stroke:#181818;stroke-width:1.0;"/></g><!--link UC7 to Administrator--><g id="link_UC7_Administrator"><path d="M333.189,334.679 C448.07,338.578 627.703,353.473 774,405 C787.187,409.645 800.508,416.472 812.657,423.721 " fill="none" id="UC7-Administrator" style="stroke:#181818;stroke-width:1.0;"/></g><!--SRC=[XPB1Ri8m38RlUGgBEsYb1QG98Q4UsMaJE-qIfIwD5XAKE9lGj7TVabMiBQtMqvy_dntNjiAQW0nOUMe8AcbHa3IQCIx8M3WwjAtSLsUffIFBmucn279zKWXbmwL-DOJmnI1ytg7W3c7sZAV0eutvgK5mrt0wpu0xE9OFVRQqo4C6ZP-0whU65im687S473xYUtKeY-jXmB8Vy2HZW58tpBLStkTU4C6YyueSc7eaRt7FaxVQU1hdL_UyrBKPXzU3lsnGlDyOa0w4CWwhH9U7x3_QN52tx7ACZUC8beKcCDh41eK1L5TuqwcrLUejDPpwXPQ7GTVsFgJI94MStjYSDuaFKu75OXVBWKVORgKMobUusmrkyz7R0XOgx6aYiW7npLXSKfZFqrBzwML7vnrTTFIgezSTlM6zROUvloG_c_3p2R-Oy5SJ_dh2t_m0]--></g></svg>